# xmcd
# 
# Track frame offsets:
#	150
#	11339
#	23490
#	35615
#	45540
#	58980
#	67486
#	81249
#	91609
#	101136
#	111227
#	120445
#
# Disc length: 1733 seconds
#
# Revision: 1
# Processed by: cddbd v1.4PL0 Copyright (c) Steve Scherf et al.
# Submitted via: Audio-CD-Archiv 2.10.446
#
DISCID=9906c30c
DTITLE=Adam - The Best Of
DYEAR=1900
DGENRE=blues
TTITLE0=Wonderful Time
TTITLE1=Diamond Ring
TTITLE2=Summertime
TTITLE3=Greenfinger
TTITLE4=Piper Of Love
TTITLE5=A Girl Like You
TTITLE6=Turn Me loose
TTITLE7=So Many Ways
TTITLE8=Singin' In The Rain
TTITLE9=Fare The Well My Pretty Maid
TTITLE10=I'm A Man
TTITLE11=Hit The Road To Dreamland
EXTD=
EXTT0=
EXTT1=
EXTT2=
EXTT3=
EXTT4=
EXTT5=
EXTT6=
EXTT7=
EXTT8=
EXTT9=
EXTT10=
EXTT11=
PLAYORDER=
